<?xml version="1.0" standalone="no"?>
<!DOCTYPE svg PUBLIC "-//W3C//DTD SVG 20010904//EN"
 "http://www.w3.org/TR/2001/REC-SVG-20010904/DTD/svg10.dtd">
<svg version="1.0" xmlns="http://www.w3.org/2000/svg"
 width="504.000000pt" height="504.000000pt" viewBox="0 0 504.000000 504.000000"
 preserveAspectRatio="xMidYMid meet">
<metadata>
Created by potrace 1.14, written by Peter Selinger 2001-2017
</metadata>
<g transform="translate(0.000000,504.000000) scale(0.100000,-0.100000)"
fill="#000000" stroke="none">
<path d="M2366 4652 c-3 -2 -31 -6 -63 -8 -32 -1 -69 -5 -83 -8 -14 -3 -50
-11 -80 -17 -65 -12 -85 -17 -85 -19 0 -1 -11 -4 -25 -6 -110 -20 -397 -141
-495 -208 -16 -12 -33 -21 -36 -21 -8 0 -167 -117 -219 -161 -74 -64 -220
-215 -264 -274 -23 -30 -44 -56 -48 -58 -5 -2 -8 -10 -8 -18 0 -8 -4 -14 -8
-14 -4 0 -23 -26 -42 -57 -19 -32 -37 -60 -40 -63 -11 -10 -100 -188 -120
-241 -11 -30 -25 -63 -30 -74 -12 -26 -52 -155 -55 -180 -2 -11 -4 -21 -5 -22
-2 -2 -4 -7 -5 -13 -1 -5 -3 -11 -5 -12 -1 -2 -3 -12 -4 -23 -2 -11 -8 -47
-15 -80 -15 -80 -24 -184 -25 -275 -1 -41 -5 -78 -11 -82 -7 -5 -7 -8 0 -8 6
0 10 -28 11 -63 1 -81 12 -174 31 -267 8 -41 16 -82 18 -91 2 -9 14 -49 26
-90 13 -41 24 -79 24 -86 0 -6 3 -15 7 -19 4 -4 121 107 260 246 139 139 281
277 314 305 66 56 180 125 207 125 10 0 17 4 17 9 0 5 12 11 28 14 15 3 45 10
67 16 91 23 240 31 315 17 105 -21 192 -48 197 -62 2 -5 -48 -60 -111 -123
l-114 -114 -99 -2 c-106 -2 -194 -28 -270 -79 -41 -27 -633 -614 -633 -627 0
-4 -7 -15 -16 -23 -14 -14 -12 -21 18 -71 18 -30 36 -55 40 -55 5 0 8 -5 8
-11 0 -11 9 -23 88 -123 114 -144 285 -298 454 -410 72 -48 76 -49 111 -27 42
26 627 613 627 629 0 7 4 12 9 12 12 0 58 105 71 165 7 28 12 86 12 130 l-1
80 112 112 c98 98 141 132 135 106 -1 -8 5 -27 22 -68 36 -87 47 -373 16 -423
-4 -7 -5 -12 -2 -12 17 0 -86 -239 -106 -248 -5 -2 -8 -8 -8 -13 0 -5 -8 -19
-17 -31 -20 -25 -486 -500 -545 -555 -21 -20 -38 -39 -38 -43 0 -11 114 -49
195 -66 11 -2 43 -8 70 -14 28 -6 61 -12 75 -15 36 -7 160 -18 198 -19 17 0
32 -4 32 -9 0 -4 5 -5 12 -1 7 4 55 9 108 10 75 1 223 12 250 19 3 1 25 5 50
9 54 9 199 44 220 53 8 3 17 7 20 7 62 12 375 156 392 181 5 6 8 6 8 0 0 -6 3
-6 8 0 4 6 43 35 87 65 44 29 85 59 91 64 7 6 29 25 50 41 48 38 234 221 234
231 0 4 6 12 14 18 8 6 41 49 75 96 33 47 64 90 68 95 15 19 54 90 91 165 20
41 42 78 47 82 6 4 7 8 2 8 -4 0 1 17 11 37 27 54 101 283 107 333 2 16 15 90
21 125 12 59 18 164 18 280 0 119 -3 174 -19 305 -7 58 -49 229 -73 299 l-18
53 -265 -264 c-256 -255 -335 -328 -358 -328 -6 0 -11 -4 -11 -9 0 -21 -179
-92 -295 -117 -41 -9 -220 -9 -265 0 -68 13 -88 18 -120 29 -89 30 -91 21 39
150 l117 116 70 0 c38 -1 83 1 99 5 17 3 40 8 51 10 38 8 128 49 164 75 51 38
630 618 630 632 0 18 -76 135 -149 229 -93 120 -259 283 -355 349 -12 8 -23
17 -26 21 -5 5 -135 92 -157 104 -7 4 -23 1 -35 -5 -13 -7 -154 -143 -314
-304 -212 -212 -301 -308 -327 -354 -21 -34 -37 -67 -37 -74 0 -7 -6 -23 -13
-37 -8 -16 -13 -61 -13 -125 l1 -100 -120 -122 c-114 -118 -120 -122 -131
-101 -7 13 -10 26 -8 30 3 5 0 8 -5 8 -6 0 -10 3 -9 8 1 4 -4 27 -11 52 -28
98 -33 273 -10 375 7 33 14 65 15 70 4 31 63 152 108 220 22 33 162 182 312
333 l273 274 -32 13 c-54 22 -135 44 -141 38 -3 -4 -6 -1 -6 5 0 7 -3 11 -7
10 -7 -1 -87 11 -178 28 -71 13 -119 17 -267 19 -92 1 -170 0 -172 -3z"/>
</g>
</svg>
